<?xml version="1.0" encoding="UTF-8"?>
<svg id="_Слой_2" data-name="Слой_2" xmlns="http://www.w3.org/2000/svg" viewBox="0 0 1029.81 323.2">
  <defs>
    <style>
      .cls-1 {
        fill: #fff;
      }
    </style>
  </defs>
  <g id="_Слой_1-2" data-name="Слой_1">
    <g>
      <path class="cls-1" d="M119.06,234.28c0,9.06-2.33,17.21-7,24.43-4.67,7.22-11.5,12.88-20.49,16.96-8.99,4.09-19.66,6.13-31.99,6.13-14.79,0-26.98-2.79-36.59-8.38-6.81-4.02-12.35-9.38-16.61-16.1-4.26-6.71-6.39-13.24-6.39-19.57,0-3.68,1.28-6.83,3.83-9.45,2.55-2.62,5.81-3.93,9.76-3.93,3.2,0,5.91,1.02,8.12,3.07,2.21,2.04,4.1,5.08,5.67,9.1,1.91,4.77,3.97,8.76,6.18,11.96,2.21,3.2,5.33,5.84,9.35,7.92,4.02,2.08,9.3,3.12,15.84,3.12,8.99,0,16.3-2.1,21.92-6.29,5.62-4.19,8.43-9.42,8.43-15.69,0-4.97-1.52-9.01-4.55-12.11-3.03-3.1-6.95-5.47-11.75-7.1-4.8-1.63-11.23-3.37-19.27-5.21-10.77-2.52-19.78-5.47-27.03-8.84-7.26-3.37-13.01-7.97-17.27-13.8-4.26-5.83-6.39-13.06-6.39-21.72s2.25-15.57,6.75-21.97c4.5-6.4,11-11.33,19.52-14.77,8.52-3.44,18.53-5.16,30.05-5.16,9.2,0,17.15,1.14,23.86,3.42,6.71,2.28,12.28,5.31,16.71,9.1,4.43,3.78,7.67,7.75,9.71,11.91,2.04,4.16,3.07,8.21,3.07,12.16,0,3.61-1.28,6.87-3.83,9.76-2.56,2.9-5.74,4.34-9.56,4.34-3.47,0-6.12-.87-7.92-2.61-1.81-1.74-3.77-4.58-5.88-8.53-2.73-5.65-6-10.07-9.81-13.23-3.82-3.17-9.95-4.75-18.4-4.75-7.84,0-14.15,1.72-18.96,5.16-4.8,3.44-7.21,7.58-7.21,12.42,0,3,.82,5.59,2.45,7.77,1.64,2.18,3.88,4.05,6.75,5.62,2.86,1.57,5.76,2.79,8.69,3.68,2.93.89,7.77,2.18,14.51,3.88,8.45,1.98,16.1,4.16,22.94,6.54,6.85,2.39,12.67,5.28,17.48,8.69,4.8,3.41,8.55,7.72,11.24,12.93,2.69,5.21,4.04,11.6,4.04,19.16Z"/>
      <path class="cls-1" d="M166.54,184h0c0,1.14,1.41,1.66,2.17.81,4.58-5.18,9.3-9.08,14.18-11.69,5.65-3.03,12.06-4.55,19.21-4.55,8.58,0,16.49,2.22,23.71,6.64,7.22,4.43,12.93,10.9,17.12,19.42,4.19,8.52,6.29,18.6,6.29,30.25,0,8.58-1.21,16.47-3.63,23.66-2.42,7.19-5.74,13.22-9.96,18.09-4.23,4.87-9.22,8.62-14.97,11.24-5.76,2.62-11.94,3.93-18.55,3.93-7.97,0-14.67-1.6-20.08-4.8-4.62-2.73-9.06-6.55-13.3-11.47-.75-.87-2.18-.35-2.18.8v38.47c0,12.26-4.46,18.4-13.39,18.4-5.25,0-8.72-1.58-10.42-4.75-1.7-3.17-2.55-7.79-2.55-13.85v-120.39c0-5.31,1.16-9.28,3.47-11.91,2.32-2.62,5.48-3.93,9.5-3.93s7.17,1.35,9.66,4.04c2.49,2.69,3.73,6.56,3.73,11.6ZM221.22,224.57c0-7.36-1.12-13.68-3.37-18.96-2.25-5.28-5.37-9.33-9.35-12.16-3.99-2.83-8.4-4.24-13.23-4.24-7.7,0-14.19,3.03-19.47,9.1-5.28,6.07-7.92,14.99-7.92,26.78,0,11.11,2.62,19.74,7.87,25.91,5.25,6.17,11.75,9.25,19.52,9.25,4.63,0,8.92-1.34,12.88-4.04,3.95-2.69,7.12-6.73,9.5-12.11,2.38-5.38,3.58-11.89,3.58-19.52Z"/>
      <path class="cls-1" d="M340.75,267.22c-.39-.62-1.22-.77-1.8-.33-6.36,4.83-12.53,8.49-18.49,10.97-6.3,2.62-13.37,3.93-21.21,3.93-7.15,0-13.44-1.41-18.86-4.24-5.42-2.83-9.59-6.66-12.52-11.5-2.93-4.84-4.4-10.08-4.4-15.74,0-7.63,2.42-14.14,7.26-19.52,4.84-5.38,11.48-8.99,19.93-10.83,1.77-.41,6.17-1.33,13.18-2.76,7.02-1.43,13.03-2.74,18.04-3.93,4.73-1.13,9.85-2.48,15.34-4.07.56-.16.94-.7.9-1.27-.43-6.85-1.89-11.92-4.39-15.2-2.62-3.44-8.06-5.16-16.3-5.16-7.09,0-12.42.99-15.99,2.96-3.58,1.98-6.64,4.94-9.2,8.89-2.55,3.95-4.36,6.56-5.42,7.82-1.06,1.26-3.32,1.89-6.8,1.89-3.13,0-5.84-1-8.12-3.01-2.28-2.01-3.42-4.58-3.42-7.72,0-4.91,1.74-9.67,5.21-14.31,3.48-4.63,8.89-8.45,16.25-11.45,7.36-3,16.52-4.5,27.49-4.5,12.26,0,21.9,1.45,28.92,4.34,7.02,2.9,11.97,7.48,14.87,13.75,2.9,6.27,4.34,14.58,4.34,24.94,0,6.54-.02,12.1-.05,16.66-.04,4.57-.09,9.64-.15,15.23,0,5.25.87,10.72,2.61,16.4,1.74,5.69,2.61,9.35,2.61,10.99,0,2.86-1.35,5.47-4.04,7.82-2.69,2.35-5.74,3.53-9.15,3.53-2.86,0-5.69-1.35-8.48-4.04-2.58-2.48-5.3-6-8.17-10.54ZM338.19,227.44c0-.85-.82-1.44-1.62-1.17-3.98,1.33-9.39,2.73-16.21,4.19-7.8,1.67-13.2,2.9-16.2,3.68-3,.78-5.86,2.32-8.58,4.6-2.73,2.28-4.09,5.47-4.09,9.56s1.6,7.82,4.8,10.78c3.2,2.96,7.39,4.45,12.57,4.45,5.52,0,10.61-1.21,15.28-3.63,4.67-2.42,8.09-5.54,10.27-9.35,2.52-4.22,3.78-11.17,3.78-20.85v-2.24Z"/>
      <path class="cls-1" d="M419.49,241.54v23.3c0,5.66-1.33,9.9-3.99,12.72-2.66,2.83-6.03,4.24-10.12,4.24s-7.32-1.43-9.91-4.29c-2.59-2.86-3.88-7.09-3.88-12.67v-77.67c0-12.54,4.53-18.81,13.59-18.81,4.63,0,7.97,1.47,10.02,4.39,1.57,2.25,2.6,5.33,3.08,9.24.14,1.15,1.63,1.51,2.26.54,2.71-4.16,5.48-7.42,8.3-9.77,3.51-2.93,8.19-4.39,14.05-4.39s11.55,1.47,17.07,4.39c5.52,2.93,8.28,6.81,8.28,11.65,0,3.41-1.17,6.22-3.53,8.43-2.35,2.21-4.89,3.32-7.61,3.32-1.02,0-3.49-.63-7.41-1.89-3.92-1.26-7.38-1.89-10.37-1.89-4.09,0-7.43,1.07-10.02,3.22-2.59,2.15-4.6,5.33-6.03,9.56-1.43,4.23-2.42,9.25-2.96,15.07-.55,5.83-.82,12.93-.82,21.31Z"/>
      <path class="cls-1" d="M545.66,269.03l-23.83-39.16c-.41-.67-1.34-.8-1.91-.26l-13.63,12.89c-.25.23-.39.56-.39.9v21.64c0,5.38-1.42,9.52-4.24,12.42-2.83,2.89-6.08,4.34-9.76,4.34-4.29,0-7.67-1.43-10.12-4.29s-3.68-7.09-3.68-12.67v-118.96c0-6.2,1.19-10.92,3.58-14.15,2.38-3.24,5.79-4.85,10.22-4.85s7.7,1.47,10.22,4.39c2.52,2.93,3.78,7.26,3.78,12.98v64.56c0,1.12,1.36,1.66,2.13.85l29.24-30.67c3.88-4.09,6.85-6.88,8.89-8.38,2.04-1.5,4.53-2.25,7.46-2.25,3.47,0,6.37,1.11,8.69,3.32,2.32,2.21,3.47,4.99,3.47,8.33,0,4.09-3.78,9.54-11.34,16.35l-14.05,12.89c-.44.41-.53,1.07-.21,1.58l28.06,44.09c2.11,3.34,3.63,5.88,4.55,7.61.92,1.74,1.38,3.39,1.38,4.96,0,4.43-1.21,7.92-3.63,10.48-2.42,2.55-5.6,3.83-9.56,3.83-3.41,0-6.03-.92-7.87-2.76s-4.33-5.18-7.46-10.02Z"/>
      <path class="cls-1" d="M742.09,262.28l-6.85-18.01c-.18-.48-.64-.8-1.16-.8h-59.2c-.52,0-.98.32-1.16.81l-6.85,18.41c-2.79,7.5-5.18,12.55-7.15,15.18-1.98,2.62-5.21,3.93-9.71,3.93-3.82,0-7.19-1.4-10.12-4.19-2.93-2.79-4.39-5.96-4.39-9.5,0-2.04.34-4.16,1.02-6.34.68-2.18,1.8-5.21,3.37-9.1l38.33-97.3c1.09-2.79,2.4-6.15,3.94-10.07,1.53-3.92,3.17-7.17,4.91-9.76,1.74-2.59,4.02-4.68,6.85-6.29,2.83-1.6,6.32-2.4,10.48-2.4s7.75.8,10.58,2.4c2.83,1.6,5.11,3.66,6.85,6.18,1.74,2.52,3.2,5.23,4.39,8.12,1.19,2.9,2.71,6.76,4.55,11.6l39.14,96.68c3.07,7.36,4.6,12.71,4.6,16.04s-1.45,6.66-4.34,9.56c-2.9,2.89-6.39,4.34-10.48,4.34-2.39,0-4.43-.43-6.13-1.28-1.7-.85-3.13-2.01-4.29-3.47-1.16-1.46-2.4-3.71-3.73-6.75-1.33-3.03-2.47-5.71-3.42-8.02ZM683.76,220.69h41.23c.86,0,1.46-.86,1.16-1.66l-20.81-56.95c-.4-1.09-1.94-1.08-2.33,0l-20.43,56.95c-.29.81.31,1.66,1.17,1.66Z"/>
      <path class="cls-1" d="M795.91,263.31v-118.04c0-6.13,1.4-10.73,4.19-13.8,2.79-3.07,6.4-4.6,10.83-4.6s8.26,1.52,11.09,4.55c2.83,3.03,4.24,7.65,4.24,13.85v118.04c0,6.2-1.42,10.83-4.24,13.9-2.83,3.07-6.53,4.6-11.09,4.6s-7.96-1.55-10.78-4.65c-2.83-3.1-4.24-7.72-4.24-13.85Z"/>
    </g>
    <path class="cls-1" d="M883.76,153.88l-14.93-48.08c-1.15-3.7-4.04-6.61-7.73-7.78l-47.99-15.24c-4.34-1.38-4.32-7.53.03-8.88l48.08-14.93c3.7-1.15,6.61-4.04,7.78-7.73l15.24-47.99c1.38-4.34,7.53-4.32,8.88.03l14.93,48.08c1.15,3.7,4.04,6.61,7.73,7.78l47.99,15.24c4.34,1.38,4.32,7.53-.03,8.88l-48.08,14.93c-3.7,1.15-6.61,4.04-7.78,7.73l-15.24,47.99c-1.38,4.34-7.53,4.32-8.88-.03Z"/>
    <path class="cls-1" d="M973.78,216.09l-9.93-31.97c-1.15-3.7-4.04-6.61-7.73-7.78l-31.9-10.13c-2.19-.7-2.18-3.8.01-4.48l31.97-9.93c3.7-1.15,6.61-4.04,7.78-7.73l10.13-31.9c.7-2.19,3.8-2.18,4.48.01l9.93,31.97c1.15,3.7,4.04,6.61,7.73,7.78l31.9,10.13c2.19.7,2.18,3.8-.01,4.48l-31.97,9.93c-3.7,1.15-6.61,4.04-7.78,7.73l-10.13,31.9c-.7,2.19-3.8,2.18-4.48-.01Z"/>
  </g>
</svg>